<?xml version="1.0" encoding="utf-8"?>
<!-- Generator: Adobe Illustrator 19.2.1, SVG Export Plug-In . SVG Version: 6.00 Build 0)  -->
<svg version="1.1" id="Layer_1" xmlns="http://www.w3.org/2000/svg" xmlns:xlink="http://www.w3.org/1999/xlink" x="0px" y="0px"
	 viewBox="0 0 275.2 60.1" style="enable-background:new 0 0 275.2 60.1;" xml:space="preserve">
<style type="text/css">
	.st0{fill:#FFFFFF;}
</style>
<g>
	<g>
		<path class="st0" d="M1.8,9.6l5.5,3.2l5.5-3.2V3.2L7.3,0L1.8,3.2V9.6z"/>
	</g>
	<path class="st0" d="M23.9,11c0.8,0,1.5,0.2,2.2,0.6L42,20.8c1.3,0.8,2.2,2.2,2.2,3.8V43c0,1.6-0.8,3-2.2,3.8L26.1,56
		c-0.7,0.4-1.4,0.6-2.2,0.6s-1.5-0.2-2.2-0.6L5.8,46.8C4.5,46,3.6,44.6,3.6,43V24.6c0-1.6,0.8-3,2.2-3.8l15.9-9.2
		C22.4,11.2,23.1,11,23.9,11 M23.9,7.3c-1.4,0-2.8,0.4-4,1.1L4,17.6c-2.5,1.4-4,4.1-4,6.9v18.4c0,2.9,1.5,5.5,4,6.9L19.9,59
		c1.2,0.7,2.6,1.1,4,1.1s2.8-0.4,4-1.1l15.9-9.2c2.5-1.4,4-4.1,4-6.9V24.5c0-2.9-1.5-5.5-4-6.9L27.9,8.4C26.7,7.7,25.3,7.3,23.9,7.3
		L23.9,7.3z"/>
	<g>
		<path class="st0" d="M67.1,41.9v-6.6H61v6.6h-3.8V26.2H61v5.9h6.1v-5.9h3.8v15.7H67.1z"/>
		<path class="st0" d="M73.8,32.3c1.3-1.2,3.1-1.9,4.9-1.9c3.7,0,5.1,1.8,5.1,5.8v5.6h-3.3v-1.2h-0.1c-0.6,0.9-1.8,1.4-3.1,1.4
			c-1.8,0-4-0.9-4-3.5c0-3.2,3.9-3.7,7.1-3.7v-0.2c0-1.1-0.9-1.6-2-1.6c-1,0-2.1,0.5-2.7,1.1L73.8,32.3z M80.5,37.1H80
			c-1.6,0-3.4,0.2-3.4,1.5c0,0.8,0.8,1.1,1.6,1.1c1.5,0,2.3-0.9,2.3-2.3L80.5,37.1L80.5,37.1z"/>
		<path class="st0" d="M93.7,33.8c-0.3-0.1-0.6-0.1-0.9-0.1c-2,0-2.6,1.6-2.6,2.5v5.7h-3.6v-11h3.5v1.6l0,0c0.6-1.1,1.6-1.9,3-1.9
			c0.3,0,0.6,0,0.8,0.1L93.7,33.8z"/>
		<path class="st0" d="M100,33.6v4.2c0,1,0.3,1.6,1.4,1.6c0.4,0,0.8-0.1,1.1-0.2v2.7c-0.5,0.2-1.3,0.3-2.1,0.3
			c-2.9,0-3.9-1.6-3.9-3.9v-4.7h-1.8v-2.7h1.8V28h3.6v2.9h2.6v2.7H100z"/>
		<path class="st0" d="M104.3,32.3c1.3-1.2,3.1-1.9,4.9-1.9c3.7,0,5.1,1.8,5.1,5.8v5.6H111v-1.2l0,0c-0.6,0.9-1.8,1.4-3.1,1.4
			c-1.8,0-4-0.9-4-3.5c0-3.2,3.9-3.7,7.1-3.7v-0.2c0-1.1-0.9-1.6-2-1.6c-1,0-2.1,0.5-2.7,1.1L104.3,32.3z M111,37.1h-0.5
			c-1.6,0-3.4,0.2-3.4,1.5c0,0.8,0.8,1.1,1.6,1.1c1.5,0,2.3-0.9,2.3-2.3V37.1z"/>
		<path class="st0" d="M129.1,41.9h-6.3V26.2h6.3c2.4,0,5.3,0.9,5.3,4c0,1.7-1,2.9-2.6,3.4l0,0c1.8,0.3,3.2,1.6,3.2,3.7
			C135,40.7,132,41.9,129.1,41.9z M128.3,29.2h-1.9v3.2h2c1.4,0,2.2-0.6,2.2-1.7C130.7,29.7,129.9,29.2,128.3,29.2z M128.6,35.2
			h-2.1v3.6h2.1c1.2,0,2.7-0.3,2.7-1.9C131.2,35.6,130.2,35.2,128.6,35.2z"/>
		<path class="st0" d="M137.2,32.3c1.3-1.2,3.1-1.9,4.9-1.9c3.7,0,5.1,1.8,5.1,5.8v5.6h-3.3v-1.2h-0.1c-0.6,0.9-1.8,1.4-3.1,1.4
			c-1.8,0-4-0.9-4-3.5c0-3.2,3.9-3.7,7.1-3.7v-0.2c0-1.1-0.9-1.6-2-1.6c-1,0-2.1,0.5-2.7,1.1L137.2,32.3z M143.8,37.1h-0.5
			c-1.6,0-3.4,0.2-3.4,1.5c0,0.8,0.8,1.1,1.6,1.1c1.5,0,2.3-0.9,2.3-2.3V37.1z"/>
		<path class="st0" d="M157.1,41.9v-6c0-1.2-0.3-2.3-1.6-2.3c-1.3,0-2,1.1-2,2.4v6h-3.7V31h3.5v1.5l0,0c0.5-1,1.8-1.8,3.3-1.8
			c3,0,4,2.3,4,4.5V42h-3.5V41.9z"/>
		<path class="st0" d="M165.4,29.3c-1.2,0-2.1-0.9-2.1-2s0.9-2,2.1-2s2.1,0.9,2.1,2C167.5,28.4,166.5,29.3,165.4,29.3z M163.6,41.9
			v-11h3.6v11H163.6z"/>
		<path class="st0" d="M170.1,41.9V25.1h3.7v16.8H170.1z"/>
		<path class="st0" d="M182.1,42.2c-3.3,0-6.1-2.3-6.1-5.9s2.8-5.8,6.1-5.8c3.3,0,6.1,2.2,6.1,5.8S185.5,42.2,182.1,42.2z
			 M182.1,33.5c-1.7,0-2.6,1.4-2.6,2.8s0.9,2.9,2.6,2.9s2.6-1.4,2.6-2.9C184.8,34.9,183.8,33.5,182.1,33.5z"/>
		<path class="st0" d="M197.7,33.8c-0.3-0.1-0.6-0.1-0.9-0.1c-2,0-2.6,1.6-2.6,2.5v5.7h-3.6v-11h3.5v1.6l0,0c0.6-1.1,1.6-1.9,3-1.9
			c0.3,0,0.6,0,0.8,0.1L197.7,33.8z"/>
		<path class="st0" d="M210.7,36h-1.9v5.9H205V26.2h5.8c3.4,0,6.1,1.2,6.1,4.8C216.9,34.6,214,36,210.7,36z M210.5,29.2h-1.7v3.7
			h1.6c1.4,0,2.7-0.4,2.7-1.9C213.2,29.5,211.8,29.2,210.5,29.2z"/>
		<path class="st0" d="M226.1,41.9v-1.5l0,0c-0.5,1-1.8,1.8-3.3,1.8c-3,0-4-2.3-4-4.5v-6.8h3.7v6c0,1.2,0.3,2.4,1.6,2.4
			c1.3,0,2-1.1,2-2.4v-6h3.6v11H226.1z"/>
		<path class="st0" d="M239.5,42.2c-1.5,0-2.9-0.6-3.6-1.8l0,0v1.4h-3.3V25.1h3.6V32l0,0c0.6-0.7,1.8-1.5,3.4-1.5
			c3.2,0,5.2,2.7,5.2,5.8S242.8,42.2,239.5,42.2z M238.6,33.5c-1.6,0-2.7,1.4-2.7,2.8s1,2.8,2.7,2.8s2.6-1.4,2.6-2.9
			C241.2,34.9,240.3,33.5,238.6,33.5z"/>
		<path class="st0" d="M247.1,41.9V25.1h3.7v16.8H247.1z"/>
		<path class="st0" d="M255.4,29.3c-1.2,0-2.1-0.9-2.1-2s0.9-2,2.1-2s2.1,0.9,2.1,2C257.5,28.4,256.6,29.3,255.4,29.3z M253.6,41.9
			v-11h3.6v11H253.6z"/>
		<path class="st0" d="M267.6,34.4c-0.4-0.5-1.2-0.9-1.9-0.9c-1.5,0-2.6,1.3-2.6,2.8s1,2.8,2.6,2.8c0.7,0,1.5-0.3,2-0.8l2,2.5
			c-0.9,0.9-2.5,1.4-4.1,1.4c-3.5,0-6.2-2.2-6.2-5.9c0-3.6,2.7-5.9,6.2-5.9c1.6,0,3.2,0.6,4.1,1.5L267.6,34.4z"/>
		<path class="st0" d="M273.1,29.3c-1.2,0-2.1-0.9-2.1-2s0.9-2,2.1-2s2.1,0.9,2.1,2C275.1,28.4,274.2,29.3,273.1,29.3z M271.2,41.9
			v-11h3.6v11H271.2z"/>
	</g>
	<g>
		<path class="st0" d="M8.6,37.2c0.7-3,4-13.4,4.6-16.2c0-0.1,3.9,0.3,3.6,1.3c-0.1,0.4-1.4,3.3-2.6,7c-0.5,1.5-0.9,2.9-1.3,4.2
			c1.4-2.7,2.9-4.7,4.3-4.7c2.1,0,2.4,2,0.8,6.8c-1.3,3.9-1.2,5.4-0.4,4.8c0.6-0.5,1.6-2.1,2.5-3.8c0.5-0.9,0.6-1,0.6-0.5
			c0,0.2-0.1,0.5-0.4,1.1c-0.8,1.4-1.6,2.7-2.4,3.6c-1,1-1.7,1.4-2.4,1.2c-0.8-0.3-1.9-2.5-0.7-6.3c1.1-3.7,2.1-4.9,1.2-4.9
			c-1.3,0-3,3.3-5,9.8c-0.3,1.5-0.4,1.7-0.4,1.7C8.9,42.4,7.6,41.4,8.6,37.2z"/>
		<path class="st0" d="M20.6,41.9c-0.9-0.3-1.7-1.8-1.1-4.7c0.7-3,4-13.4,4.6-16.2c0-0.1,3.9,0.3,3.6,1.3c-0.1,0.4-1.6,3.3-2.8,7
			c-0.3,1-0.7,2.1-0.9,3c0.8-1.8,1.9-3.5,3-3.5c2.1,0,3.1,3.3,2,6.8C27.5,39.9,22.6,42.6,20.6,41.9z M22.7,37.3l-0.2,0.9
			c-0.3,1.7-0.6,2.8,0.1,2.8c0.9,0,2.1-1.6,3.2-5.4c0.9-3,1.2-4.9,0.3-4.9C25.2,30.6,23.7,33.9,22.7,37.3z"/>
		<path class="st0" d="M32.9,33.3C32.9,33.4,32.9,33.4,32.9,33.3c1-2.1,3.4-4.5,4.6-4.5c2.1,0,2.6,3.3,1.1,7.5
			c-1.9,5.1-5.8,6.7-6.9,5.4c-0.3-0.3-0.5-0.6-0.7-1c-1.2,4.2-1.4,6.7-1.8,9c0,0.1-3.8,0.1-3.3-1.1c0.1-0.1,1.1-3.4,2.3-7.1
			s2.9-9.8,3.6-13.8c0-0.1,3.6-0.2,3.4,0.9C34.8,29.6,33.7,31,32.9,33.3z M31.2,40c0.2,0.3,0.5,0.7,0.7,0.8c1.1,0.6,2.4-1.5,3.5-4.6
			c1.3-3.8,2-5.8,1.1-5.8s-3.2,3-4.3,6.4C31.8,37.9,31.5,39,31.2,40z"/>
	</g>
</g>
</svg>
